<svg width="100" height="100" viewBox="0 0 100 100" fill="none" xmlns="http://www.w3.org/2000/svg">
<path d="M41.6667 8.33301H58.3334" stroke="white" stroke-width="1.5" stroke-linecap="round"/>
<path d="M57.865 45.5617C62.3438 49.2153 64.5833 51.0422 64.5833 54.1667C64.5833 57.2912 62.3438 59.118 57.865 62.7717C56.6286 63.7803 55.4023 64.7299 54.2754 65.5212C53.2868 66.2154 52.1672 66.9335 51.008 67.6384C46.5396 70.3556 44.3055 71.7142 42.3016 70.21C40.2978 68.7058 40.1157 65.5569 39.7515 59.259C39.6485 57.4779 39.5833 55.7319 39.5833 54.1667C39.5833 52.6014 39.6485 50.8554 39.7515 49.0744C40.1157 42.7765 40.2978 39.6275 42.3016 38.1233C44.3055 36.6191 46.5396 37.9777 51.008 40.695C52.1672 41.3999 53.2868 42.118 54.2754 42.8122C55.4023 43.6035 56.6286 44.5531 57.865 45.5617Z" stroke="white" stroke-width="1.5"/>
<path d="M31.25 21.6838C36.7657 18.4931 43.1696 16.667 50 16.667C70.7107 16.667 87.5 33.4563 87.5 54.167C87.5 74.8777 70.7107 91.667 50 91.667C29.2893 91.667 12.5 74.8777 12.5 54.167C12.5 47.3366 14.3261 40.9327 17.5168 35.417" stroke="white" stroke-width="1.5" stroke-linecap="round"/>
</svg>
